<?xml version="1.0" encoding="UTF-8" standalone="no"?>
<!-- Created with Inkscape (http://www.inkscape.org/) -->

<svg
   version="1.1"
   id="svg2"
   xml:space="preserve"
   width="416.78134"
   height="260.41333"
   viewBox="0 0 416.78134 260.41333"
   sodipodi:docname="cookie_bode.pdf"
   xmlns:inkscape="http://www.inkscape.org/namespaces/inkscape"
   xmlns:sodipodi="http://sodipodi.sourceforge.net/DTD/sodipodi-0.dtd"
   xmlns="http://www.w3.org/2000/svg"
   xmlns:svg="http://www.w3.org/2000/svg"><defs
     id="defs6"><clipPath
       clipPathUnits="userSpaceOnUse"
       id="clipPath176"><path
         d="M -123.30095,-6.80388 H 137.94356 V 74.8387 h -261.24451 z"
         id="path174" /></clipPath><clipPath
       clipPathUnits="userSpaceOnUse"
       id="clipPath488"><path
         d="M -123.30095,-6.80367 H 137.94356 V 74.83627 H -123.30095 Z"
         id="path486" /></clipPath></defs><sodipodi:namedview
     id="namedview4"
     pagecolor="#ffffff"
     bordercolor="#666666"
     borderopacity="1.0"
     inkscape:pageshadow="2"
     inkscape:pageopacity="0.0"
     inkscape:pagecheckerboard="0" /><g
     id="g8"
     inkscape:groupmode="layer"
     inkscape:label="cookie_bode"
     transform="matrix(1.3333333,0,0,-1.3333333,0,260.41333)"><g
       id="g10"
       transform="translate(51.146,113.392)"><g
         id="g12"><g
           id="g14" /><g
           id="g16"><g
             id="g18" /><g
             id="g20" /><g
             id="g22"><g
               id="g24" /></g><g
             id="g26" /><g
             id="g28" /><g
             id="g30" /><g
             id="g32" /><g
             id="g34"
             transform="translate(-46.336,-6.841)"><g
               id="g36"
               transform="translate(169.635,13.645)"><g
                 id="g38"><g
                   id="g40" /><g
                   id="g42"><g
                     id="g44"><g
                       id="g46"><g
                         id="g48"><path
                           d="m -108.85092,-6.80388 v 4.25176 m 36.28364,-4.25176 v 4.25176 m 36.28365,-4.25176 v 4.25176 M 0,-6.80388 v 4.25176 m 36.28363,-4.25176 v 4.25176 m 36.28365,-4.25176 v 4.25176 m 36.28364,-4.25176 v 4.25176 M -108.85092,74.8387 v -4.25176 m 36.28364,4.25176 v -4.25176 m 36.28365,4.25176 V 70.58694 M 0,74.8387 v -4.25176 m 36.28363,4.25176 v -4.25176 m 36.28365,4.25176 v -4.25176 m 36.28364,4.25176 v -4.25176"
                           style="fill:none;stroke:#808080;stroke-width:0.19925;stroke-linecap:butt;stroke-linejoin:miter;stroke-miterlimit:10;stroke-dasharray:none;stroke-opacity:1"
                           id="path50" /></g></g><g
                       id="g52"><g
                         id="g54"><path
                           d="m -123.30095,5.13193 h 4.25011 m -4.25011,31.72651 h 4.25011 m -4.25011,31.72654 h 4.25011 M 137.94356,5.13193 h -4.25011 m 4.25011,31.72651 h -4.25011 m 4.25011,31.72654 h -4.25011"
                           style="fill:none;stroke:#808080;stroke-width:0.19925;stroke-linecap:butt;stroke-linejoin:miter;stroke-miterlimit:10;stroke-dasharray:none;stroke-opacity:1"
                           id="path56" /></g></g><path
                       d="M -123.30095,-6.80388 V 74.8387 H 137.94356 V -6.80388 Z"
                       style="fill:none;stroke:#46413c;stroke-width:0.3985;stroke-linecap:butt;stroke-linejoin:miter;stroke-miterlimit:10;stroke-dasharray:none;stroke-opacity:1"
                       id="path58" /><g
                       id="g60"><g
                         id="g62"
                         transform="translate(-108.849,-10.324)"><g
                           id="g64" /><g
                           id="g66"
                           transform="translate(108.849,10.324)" /></g></g><g
                       id="g68"><g
                         id="g70"
                         transform="translate(-72.566,-10.324)"><g
                           id="g72" /><g
                           id="g74"
                           transform="translate(72.566,10.324)" /></g></g><g
                       id="g76"><g
                         id="g78"
                         transform="translate(-36.283,-10.324)"><g
                           id="g80" /><g
                           id="g82"
                           transform="translate(36.283,10.324)" /></g></g><g
                       id="g84"><g
                         id="g86"
                         transform="translate(0,-10.324)"><g
                           id="g88" /><g
                           id="g90"
                           transform="translate(0,10.324)" /></g></g><g
                       id="g92"><g
                         id="g94"
                         transform="translate(36.283,-10.324)"><g
                           id="g96" /><g
                           id="g98"
                           transform="translate(-36.283,10.324)" /></g></g><g
                       id="g100"><g
                         id="g102"
                         transform="translate(72.566,-10.324)"><g
                           id="g104" /><g
                           id="g106"
                           transform="translate(-72.566,10.324)" /></g></g><g
                       id="g108"><g
                         id="g110"
                         transform="translate(108.85,-10.324)"><g
                           id="g112" /><g
                           id="g114"
                           transform="translate(-108.85,10.324)" /></g></g><g
                       id="g116"><g
                         id="g118"
                         transform="translate(-149.512,2.336)"><g
                           id="g120"><g
                             id="g122"
                             transform="translate(-24.933,-122.532)"><text
                               transform="matrix(1,0,0,-1,24.933,122.532)"
                               style="font-variant:normal;font-weight:normal;font-size:9.96264px;font-family:CMSY10;-inkscape-font-specification:CMSY10;writing-mode:lr-tb;fill:#46413c;fill-opacity:1;fill-rule:nonzero;stroke:none"
                               id="text126"><tspan
                                 x="0"
                                 y="0"
                                 id="tspan124">−</tspan></text><text
                               transform="matrix(1,0,0,-1,32.682,122.532)"
                               style="font-variant:normal;font-weight:normal;font-size:9.96264px;font-family:CMR10;-inkscape-font-specification:CMR10;writing-mode:lr-tb;fill:#46413c;fill-opacity:1;fill-rule:nonzero;stroke:none"
                               id="text130"><tspan
                                 x="0 4.9813199 9.9626398"
                                 y="0"
                                 sodipodi:role="line"
                                 id="tspan128">400</tspan></text><g
                               id="g132"
                               transform="translate(24.933,122.532)" /></g></g><g
                           id="g134"
                           transform="translate(149.512,-2.336)" /></g></g><g
                       id="g136"><g
                         id="g138"
                         transform="translate(-149.512,34.062)"><g
                           id="g140"><g
                             id="g142"
                             transform="translate(-24.933,-154.258)"><text
                               transform="matrix(1,0,0,-1,24.933,154.258)"
                               style="font-variant:normal;font-weight:normal;font-size:9.96264px;font-family:CMSY10;-inkscape-font-specification:CMSY10;writing-mode:lr-tb;fill:#46413c;fill-opacity:1;fill-rule:nonzero;stroke:none"
                               id="text146"><tspan
                                 x="0"
                                 y="0"
                                 id="tspan144">−</tspan></text><text
                               transform="matrix(1,0,0,-1,32.682,154.258)"
                               style="font-variant:normal;font-weight:normal;font-size:9.96264px;font-family:CMR10;-inkscape-font-specification:CMR10;writing-mode:lr-tb;fill:#46413c;fill-opacity:1;fill-rule:nonzero;stroke:none"
                               id="text150"><tspan
                                 x="0 4.9813199 9.9626398"
                                 y="0"
                                 sodipodi:role="line"
                                 id="tspan148">200</tspan></text><g
                               id="g152"
                               transform="translate(24.933,154.258)" /></g></g><g
                           id="g154"
                           transform="translate(149.512,-34.062)" /></g></g><g
                       id="g156"><g
                         id="g158"
                         transform="translate(-131.8,65.373)"><g
                           id="g160"><g
                             id="g162"
                             transform="translate(-42.645,-185.569)"><text
                               transform="matrix(1,0,0,-1,42.645,185.569)"
                               style="font-variant:normal;font-weight:normal;font-size:9.96264px;font-family:CMR10;-inkscape-font-specification:CMR10;writing-mode:lr-tb;fill:#46413c;fill-opacity:1;fill-rule:nonzero;stroke:none"
                               id="text166"><tspan
                                 x="0"
                                 y="0"
                                 id="tspan164">0</tspan></text><g
                               id="g168"
                               transform="translate(42.645,185.569)" /></g></g><g
                           id="g170"
                           transform="translate(131.8,-65.373)" /></g></g><g
                       id="g172"
                       clip-path="url(#clipPath176)"><g
                         id="g178"><path
                           d="m -101.5296,68.03479 c 0,0 1.58853,0 2.19888,0 0.61034,0 1.58965,0 2.20006,0 0.6104,0 1.58919,0 2.19936,0 0.61018,0 1.58837,-2e-5 2.19839,-2e-5 0.61,0 1.58801,-10e-6 2.19815,-10e-6 0.61012,0 1.58896,-2e-5 2.19934,-2e-5 0.61037,0 1.58943,-1e-5 2.19983,-1e-5 0.61041,0 1.58939,-2e-5 2.19959,-2e-5 0.61021,0 1.58831,-3e-5 2.19839,-3e-5 0.61008,0 1.58859,-4e-5 2.19864,-4e-5 0.61003,0 1.5879,-4e-5 2.19813,-5e-5 0.61025,-10e-6 1.58971,-6e-5 2.20008,-7e-5 0.61038,-2e-5 1.58882,-8e-5 2.19912,-1e-4 0.6103,-1e-5 1.58933,-9e-5 2.19959,-1.2e-4 0.61028,-3e-5 1.58878,-1.2e-4 2.19888,-1.7e-4 0.6101,-4e-5 1.58818,-1.5e-4 2.19838,-2.1e-4 0.61022,-6e-5 1.58949,-2e-4 2.19959,-2.9e-4 0.6101,-9e-5 1.58746,-2.6e-4 2.19766,-3.8e-4 0.61021,-1.2e-4 1.58998,-3.5e-4 2.20032,-5e-4 0.61035,-1.4e-4 1.58842,-4.5e-4 2.19864,-6.6e-4 0.61019,-2.1e-4 1.58911,-5.9e-4 2.19934,-8.7e-4 0.61024,-2.8e-4 1.58917,-7.9e-4 2.19888,-0.0012 0.6097,-3.6e-4 1.58525,-10e-4 2.1955,-0.0015 0.61022,-4.9e-4 1.59201,-0.0014 2.20271,-0.002 0.61072,-6.4e-4 1.5888,-0.0018 2.19888,-0.0026 0.61008,-8.4e-4 1.58811,-0.0024 2.19815,-0.0035 0.61003,-0.0011 1.58846,-0.0031 2.19862,-0.0046 0.61019,-0.0015 1.5887,-0.0041 2.19912,-0.006 0.6104,-0.0019 1.58993,-0.0054 2.20032,-0.0079 0.61036,-0.0025 1.58868,-0.007 2.19885,-0.01022 0.61018,-0.0033 1.58874,-0.0091 2.19888,-0.0133 0.61013,-0.0042 1.58856,-0.01175 2.19863,-0.0172 0.61007,-0.0055 1.58828,-0.01512 2.19839,-0.02209 0.61009,-0.007 1.58853,-0.01931 2.19887,-0.02814 0.61035,-0.0088 1.58966,-0.02446 2.20005,-0.03553 0.61042,-0.01106 1.58919,-0.03061 2.19938,-0.04429 0.61016,-0.0137 1.58838,-0.03778 2.19838,-0.05449 0.61001,-0.01671 1.58801,-0.04593 2.19815,-0.06595 0.61013,-0.02002 1.58897,-0.05486 2.19934,-0.07845 0.61038,-0.0236 1.58943,-0.06434 2.19984,-0.09159 0.6104,-0.02726 1.58937,-0.07399 2.19959,-0.10486 0.6102,-0.03089 1.58833,-0.08342 2.19839,-0.11777 0.61008,-0.03433 1.58858,-0.09227 2.19862,-0.12981 0.61005,-0.03753 1.58793,-0.10034 2.19817,-0.1407 0.61023,-0.04036 1.58968,-0.10742 2.20006,-0.1502 0.61037,-0.04281 1.58882,-0.11342 2.19911,-0.15825 0.61029,-0.04483 1.5893,-0.1184 2.19956,-0.16487 0.61027,-0.0465 1.58877,-0.12243 2.19888,-0.17028 0.61011,-0.04783 1.58818,-0.12565 2.19839,-0.17457 0.6102,-0.04892 1.58948,-0.12827 2.19959,-0.1781 0.61009,-0.04984 1.58746,-0.13045 2.19768,-0.18108 0.61019,-0.05063 1.58995,-0.1324 2.2003,-0.18379 0.61033,-0.05138 1.58842,-0.13437 2.19862,-0.18656 0.61022,-0.05218 1.58911,-0.13653 2.19936,-0.18966 0.61023,-0.05313 1.58915,-0.13909 2.19887,-0.19335 0.60971,-0.05427 1.58526,-0.14222 2.19549,-0.19791 0.61025,-0.05567 1.59201,-0.14608 2.20273,-0.20345 0.6107,-0.05738 1.58881,-0.15075 2.19887,-0.21013 0.61007,-0.05938 1.5881,-0.15622 2.19815,-0.21793 0.61004,-0.06171 1.58845,-0.16252 2.19864,-0.22685 0.61017,-0.06432 1.58868,-0.16957 2.19909,-0.23679 0.6104,-0.0672 1.58995,-0.1773 2.20032,-0.24765 0.61038,-0.07034 1.5887,-0.18567 2.19888,-0.25935 0.61017,-0.07369 1.58872,-0.19452 2.19886,-0.27175 0.61013,-0.07722 1.58856,-0.20391 2.19864,-0.2849 0.61006,-0.081 1.58828,-0.2139 2.19837,-0.2989 0.61011,-0.08499 1.58854,-0.2245 2.19889,-0.31375 0.61033,-0.08925 1.58966,-0.23578 2.20007,-0.32957 0.6104,-0.0938 1.58917,-0.24785 2.19934,-0.34647 0.61019,-0.0986 1.58838,-0.26063 2.1984,-0.36436 0.61,-0.10375 1.58801,-0.2742 2.19813,-0.38333 0.61014,-0.10915 1.58899,-0.28849 2.19937,-0.40326 0.61037,-0.11478 1.58942,-0.30339 2.19983,-0.42406 0.6104,-0.12065 1.58939,-0.3189 2.19959,-0.44562 0.61021,-0.12672 1.58832,-0.33484 2.19839,-0.46776 0.61006,-0.13293 1.58859,-0.35112 2.19863,-0.49037 0.61004,-0.13925 1.5879,-0.36765 2.19815,-0.51327 0.61024,-0.14565 1.5897,-0.38436 2.20007,-0.53646 0.61038,-0.1521 1.58881,-0.4012 2.19911,-0.55982 0.61029,-0.15864 1.58931,-0.41826 2.19959,-0.58358 0.61026,-0.1653 1.58877,-0.43572 2.19886,-0.60789 0.61011,-0.17218 1.58818,-0.45377 2.1984,-0.63313 0.61021,-0.17937 1.58949,-0.47272 2.19958,-0.6597 0.61011,-0.187 1.58747,-0.49288 2.19768,-0.688 0.61022,-0.1951 1.58997,-0.51446 2.2003,-0.71832 0.61036,-0.20385 1.58843,-0.53772 2.19864,-0.75094 0.6102,-0.21323 1.5891,-0.56267 2.19935,-0.78592 0.61024,-0.22324 1.58917,-0.58926 2.19886,-0.82315 0.60971,-0.23389 1.58527,-0.61747 2.19551,-0.86254 0.61023,-0.24507 1.59201,-0.64706 2.20272,-0.90385 0.61071,-0.2568 1.5888,-0.67799 2.19888,-0.94698 0.61006,-0.269 1.5881,-0.71012 2.19813,-0.9917 0.61005,-0.28156 1.58846,-0.74325 2.19864,-1.03773 0.61019,-0.29449 1.5887,-0.77721 2.1991,-1.08485 0.61041,-0.30764 1.58995,-0.81163 2.20032,-1.13245 0.61038,-0.32083 1.5887,-0.84604 2.19888,-1.17986 0.61018,-0.33383 1.58873,-0.87981 2.19885,-1.22613 0.61014,-0.34631 1.58856,-0.91205 2.19864,-1.26998 0.61008,-0.35792 2.1984,-1.30982 2.1984,-1.30982"
                           style="fill:none;stroke:#1f77b4;stroke-width:0.79701;stroke-linecap:butt;stroke-linejoin:miter;stroke-miterlimit:10;stroke-dasharray:none;stroke-opacity:1"
                           id="path180" /></g><g
                         id="g182"><path
                           d="m -101.5296,66.85036 c 0,0 1.58853,0 2.19888,0 0.61034,0 1.58965,0 2.20006,0 0.6104,0 1.58919,0 2.19936,0 0.61018,0 1.58837,-2e-5 2.19839,-2e-5 0.61,0 1.58801,-1e-5 2.19815,-1e-5 0.61012,0 1.58896,-2e-5 2.19934,-2e-5 0.61037,0 1.58943,-10e-6 2.19983,-10e-6 0.61041,0 1.58939,-2e-5 2.19959,-2e-5 0.61021,0 1.58831,-3e-5 2.19839,-3e-5 0.61008,0 1.58859,-5e-5 2.19864,-5e-5 0.61003,0 1.5879,-4e-5 2.19813,-6e-5 0.61025,-1e-5 1.58971,-4e-5 2.20008,-6e-5 0.61038,-1e-5 1.58882,-8e-5 2.19912,-1e-4 0.6103,-3e-5 1.58933,-1e-4 2.19959,-1.3e-4 0.61028,-3e-5 1.58878,-1.2e-4 2.19888,-1.6e-4 0.6101,-5e-5 1.58818,-1.6e-4 2.19838,-2.2e-4 0.61022,-6e-5 1.58949,-2.1e-4 2.19959,-3e-4 0.6101,-9e-5 1.58746,-2.7e-4 2.19766,-3.8e-4 0.61021,-1.3e-4 1.58998,-3.4e-4 2.20032,-4.9e-4 0.61035,-1.6e-4 1.58842,-4.8e-4 2.19864,-6.9e-4 0.61019,-2.1e-4 1.58911,-6.1e-4 2.19934,-8.8e-4 0.61024,-2.8e-4 1.58917,-8.1e-4 2.19888,-0.0012 0.6097,-3.7e-4 1.58525,-0.0011 2.1955,-0.0015 0.61022,-4.9e-4 1.59201,-0.0014 2.20271,-0.002 0.61072,-6.5e-4 1.5888,-0.0018 2.19888,-0.0027 0.61008,-8.6e-4 1.58811,-0.0024 2.19815,-0.0035 0.61003,-0.0011 1.58846,-0.0032 2.19862,-0.0046 0.61019,-0.0015 1.5887,-0.0042 2.19912,-0.0061 0.6104,-0.0019 1.58993,-0.0054 2.20032,-0.008 0.61036,-0.0025 1.58868,-0.0071 2.19885,-0.0104 0.61018,-0.0033 1.58874,-0.0092 2.19888,-0.01354 0.61013,-0.0043 1.58856,-0.01196 2.19863,-0.01752 0.61007,-0.0055 1.58828,-0.01541 2.19839,-0.0225 0.61009,-0.0071 1.58853,-0.0197 2.19887,-0.02871 0.61035,-0.009 1.58966,-0.02494 2.20005,-0.03625 0.61042,-0.01131 1.58919,-0.03127 2.19938,-0.04528 0.61016,-0.01402 1.58838,-0.03864 2.19838,-0.05575 0.61001,-0.01712 1.58801,-0.0471 2.19815,-0.06767 0.61013,-0.02057 1.58897,-0.05637 2.19934,-0.08068 0.61038,-0.0243 1.58943,-0.06632 2.19984,-0.09452 0.6104,-0.0282 1.58937,-0.0766 2.19959,-0.10872 0.6102,-0.03212 1.58833,-0.08689 2.19839,-0.12285 0.61008,-0.03597 1.58858,-0.09683 2.19862,-0.13649 0.61005,-0.03966 1.58793,-0.10628 2.19817,-0.14942 0.61023,-0.04315 1.58968,-0.11514 2.20006,-0.16155 0.61037,-0.04641 1.58882,-0.12346 2.19911,-0.17298 0.61029,-0.04951 1.5893,-0.13139 2.19956,-0.18391 0.61027,-0.05252 1.58877,-0.13916 2.19888,-0.19472 0.61011,-0.05554 1.58818,-0.14702 2.19839,-0.20569 0.6102,-0.05868 1.58948,-0.15527 2.19959,-0.21733 0.61009,-0.06206 1.58746,-0.16424 2.19768,-0.23001 0.61019,-0.06577 1.58995,-0.17415 2.2003,-0.24402 0.61033,-0.06987 1.58842,-0.18518 2.19862,-0.25959 0.61022,-0.07444 1.58911,-0.19742 2.19936,-0.27685 0.61023,-0.0794 1.58915,-0.2108 2.19887,-0.29564 0.60971,-0.08483 1.58526,-0.22526 2.19549,-0.31588 0.61025,-0.09063 1.59201,-0.2406 2.20273,-0.3373 0.6107,-0.09669 1.58881,-0.25665 2.19887,-0.35966 0.61007,-0.10302 1.5881,-0.27326 2.19815,-0.38275 0.61004,-0.1095 1.58845,-0.29035 2.19864,-0.40653 0.61017,-0.11616 1.58868,-0.30785 2.19909,-0.43088 0.6104,-0.12303 1.58995,-0.32582 2.20032,-0.45591 0.61038,-0.13009 1.5887,-0.34432 2.19888,-0.48168 0.61017,-0.13734 1.58872,-0.36343 2.19886,-0.50833 0.61013,-0.14491 1.58856,-0.3833 2.19864,-0.53613 0.61006,-0.15282 1.58828,-0.40421 2.19837,-0.56543 0.61011,-0.16124 1.58854,-0.42644 2.19889,-0.59667 0.61033,-0.17022 1.58966,-0.45034 2.20007,-0.63031 0.6104,-0.17996 1.58917,-0.47624 2.19934,-0.66678 0.61019,-0.19055 1.58838,-0.50448 2.1984,-0.70652 0.61,-0.20206 1.58801,-0.53524 2.19813,-0.7498 0.61014,-0.21456 1.58899,-0.56861 2.19937,-0.79671 0.61037,-0.22811 1.58942,-0.60469 2.19983,-0.84735 0.6104,-0.24268 1.58939,-0.64348 2.19959,-0.90174 0.61021,-0.25827 1.58832,-0.68489 2.19839,-0.95977 0.61006,-0.27491 1.58859,-0.72898 2.19863,-1.0215 0.61004,-0.29253 1.5879,-0.7757 2.19815,-1.08692 0.61024,-0.31122 1.5897,-0.82516 2.20007,-1.15614 0.61038,-0.33098 1.58881,-0.87747 2.19911,-1.22932 0.61029,-0.35184 1.58931,-0.93271 2.19959,-1.3066 0.61026,-0.37387 1.58877,-0.99101 2.19886,-1.38814 0.61011,-0.39711 1.58818,-1.05247 2.1984,-1.47407 0.61021,-0.42159 1.58949,-1.11721 2.19958,-1.56455 0.61011,-0.44736 1.58747,-1.18526 2.19768,-1.6597 0.61022,-0.47444 1.58997,-1.25684 2.2003,-1.75974 0.61036,-0.50292 1.58843,-1.3321 2.19864,-1.86498 0.6102,-0.5329 1.5891,-1.41132 2.19935,-1.97574 0.61024,-0.56444 1.58917,-1.49472 2.19886,-2.09236 0.60971,-0.59764 1.58527,-1.58252 2.19551,-2.21507 0.61023,-0.63257 1.59201,-1.67484 2.20272,-2.34403 0.61071,-0.66919 1.5888,-1.77164 2.19888,-2.47909 0.61006,-0.70746 1.5881,-1.87264 2.19813,-2.61985 0.61005,-0.7472 1.58846,-1.97734 2.19864,-2.76552 0.61019,-0.78817 1.5887,-2.08511 2.1991,-2.91513 0.61041,-0.83003 1.58995,-2.19488 2.20032,-3.0672 0.61038,-0.87231 1.5887,-2.30545 2.19888,-3.21989 0.61018,-0.91444 1.58873,-2.41516 2.19885,-3.37084 0.61014,-0.95567 1.58856,-2.52195 2.19864,-3.51704 C 114.58391,2.65979 116.17223,0 116.17223,0"
                           style="fill:none;stroke:#ff7f0e;stroke-width:0.79701;stroke-linecap:butt;stroke-linejoin:miter;stroke-miterlimit:10;stroke-dasharray:none;stroke-opacity:1"
                           id="path184" /></g><g
                         id="g186"><path
                           d="m -101.5296,66.87886 c 0,0 1.58853,0 2.19888,0 0.61034,0 1.58965,0 2.20006,0 0.6104,0 1.58919,-1e-5 2.19936,-1e-5 0.61018,0 1.58837,0 2.19839,0 0.61,0 1.58801,-2e-5 2.19815,-2e-5 0.61012,0 1.58896,-2e-5 2.19934,-2e-5 0.61037,0 1.58943,-1e-5 2.19983,-1e-5 0.61041,0 1.58939,-3e-5 2.19959,-3e-5 0.61021,0 1.58831,-3e-5 2.19839,-3e-5 0.61008,0 1.58859,-3e-5 2.19864,-3e-5 0.61003,0 1.5879,-5e-5 2.19813,-6e-5 0.61025,-2e-5 1.58971,-6e-5 2.20008,-8e-5 0.61038,-1e-5 1.58882,-7e-5 2.19912,-9e-5 0.6103,-2e-5 1.58933,-9e-5 2.19959,-1.2e-4 0.61028,-3e-5 1.58878,-1.3e-4 2.19888,-1.7e-4 0.6101,-5e-5 1.58818,-1.7e-4 2.19838,-2.3e-4 0.61022,-6e-5 1.58949,-2e-4 2.19959,-2.9e-4 0.6101,-9e-5 1.58746,-2.6e-4 2.19766,-3.8e-4 0.61021,-1.2e-4 1.58998,-3.5e-4 2.20032,-5e-4 0.61035,-1.6e-4 1.58842,-4.6e-4 2.19864,-6.8e-4 0.61019,-2.1e-4 1.58911,-6.2e-4 2.19934,-9e-4 0.61024,-2.7e-4 1.58917,-8.1e-4 2.19888,-0.0012 0.6097,-3.7e-4 1.58525,-0.001 2.1955,-0.0015 0.61022,-4.9e-4 1.59201,-0.0014 2.20271,-0.002 0.61072,-6.6e-4 1.5888,-0.0018 2.19888,-0.0027 0.61008,-8.5e-4 1.58811,-0.0024 2.19815,-0.0035 0.61003,-0.0011 1.58846,-0.0032 2.19862,-0.0046 0.61019,-0.0015 1.5887,-0.0041 2.19912,-0.0061 0.6104,-0.0019 1.58993,-0.0054 2.20032,-0.008 0.61036,-0.0025 1.58868,-0.0071 2.19885,-0.01041 0.61018,-0.0033 1.58874,-0.0092 2.19888,-0.01353 0.61013,-0.0043 1.58856,-0.01196 2.19863,-0.01752 0.61007,-0.0055 1.58828,-0.01539 2.19839,-0.02249 0.61009,-0.0071 1.58853,-0.01968 2.19887,-0.02869 0.61035,-0.009 1.58966,-0.02494 2.20005,-0.03624 0.61042,-0.01129 1.58919,-0.03124 2.19938,-0.04524 0.61016,-0.014 1.58838,-0.03865 2.19838,-0.05574 0.61001,-0.0171 1.58801,-0.04704 2.19815,-0.06761 0.61013,-0.02057 1.58897,-0.05635 2.19934,-0.08065 0.61038,-0.02428 1.58943,-0.06628 2.19984,-0.09444 0.6104,-0.02817 1.58937,-0.07654 2.19959,-0.10863 0.6102,-0.03211 1.58833,-0.08678 2.19839,-0.1227 0.61008,-0.03593 1.58858,-0.09673 2.19862,-0.13632 0.61005,-0.0396 1.58793,-0.10612 2.19817,-0.14917 0.61023,-0.04306 1.58968,-0.11491 2.20006,-0.16122 0.61037,-0.04632 1.58882,-0.12317 2.19911,-0.17254 0.61029,-0.04936 1.5893,-0.13096 2.19956,-0.18327 0.61027,-0.05231 1.58877,-0.13856 2.19888,-0.19381 0.61011,-0.05527 1.58818,-0.14622 2.19839,-0.2045 0.6102,-0.05831 1.58948,-0.1542 2.19959,-0.21572 0.61009,-0.06154 1.58746,-0.16278 2.19768,-0.22784 0.61019,-0.06507 1.58995,-0.17218 2.2003,-0.24117 0.61033,-0.06897 1.58842,-0.18266 2.19862,-0.25593 0.61022,-0.07328 1.58911,-0.19423 2.19936,-0.27225 0.61023,-0.07802 1.58915,-0.20691 2.19887,-0.29005 0.60971,-0.08316 1.58526,-0.22063 2.19549,-0.30927 0.61025,-0.08865 1.59201,-0.23524 2.20273,-0.3297 0.6107,-0.09445 1.58881,-0.25059 2.19887,-0.35112 0.61007,-0.10051 1.5881,-0.26658 2.19815,-0.37339 0.61004,-0.10682 1.58845,-0.28315 2.19864,-0.39643 0.61017,-0.11328 1.58868,-0.30018 2.19909,-0.42012 0.6104,-0.11995 1.58995,-0.31765 2.20032,-0.44442 0.61038,-0.12678 1.5887,-0.33556 2.19888,-0.4693 0.61017,-0.13376 1.58872,-0.35383 2.19886,-0.49468 0.61013,-0.14087 1.58856,-0.37245 2.19864,-0.52061 0.61006,-0.14817 1.58828,-0.39157 2.19837,-0.54728 0.61011,-0.1557 1.58854,-0.41137 2.19889,-0.57495 0.61033,-0.16357 1.58966,-0.43213 2.20007,-0.60406 0.6104,-0.17194 1.58917,-0.45426 2.19934,-0.63512 0.61019,-0.18088 1.58838,-0.47804 2.1984,-0.66859 0.61,-0.19054 1.58801,-0.50379 2.19813,-0.70478 0.61014,-0.20098 1.58899,-0.53162 2.19937,-0.74388 0.61037,-0.21224 1.58942,-0.5616 2.19983,-0.78593 0.6104,-0.22435 1.58939,-0.59375 2.19959,-0.83099 0.61021,-0.23725 1.58832,-0.628 2.19839,-0.87899 0.61006,-0.25097 1.58859,-0.6644 2.19863,-0.92994 0.61004,-0.26555 1.5879,-0.70302 2.19815,-0.98397 0.61024,-0.28094 1.5897,-0.7438 2.20007,-1.04102 0.61038,-0.2972 1.58881,-0.7868 2.19911,-1.1011 0.61029,-0.3143 1.58931,-0.83197 2.19959,-1.16415 0.61026,-0.3322 1.58877,-0.8792 2.19886,-1.23009 0.61011,-0.35089 1.58818,-0.92856 2.1984,-1.29901 0.61021,-0.37045 1.58949,-0.9801 2.19958,-1.37105 0.61011,-0.39094 1.58747,-1.03418 2.19768,-1.44668 0.61022,-0.41251 1.58997,-1.09112 2.2003,-1.52642 0.61036,-0.43528 1.58843,-1.15142 2.19864,-1.6109 0.6102,-0.45949 1.5891,-1.21553 2.19935,-1.70076 0.61024,-0.48523 1.58917,-1.28383 2.19886,-1.79648 0.60971,-0.51263 1.58527,-1.35656 2.19551,-1.89837 0.61023,-0.54181 1.59201,-1.43395 2.20272,-2.00669 0.61071,-0.57275 1.5888,-1.51593 2.19888,-2.12136 0.61006,-0.60544 1.5881,-1.60245 2.19813,-2.24222 0.61005,-0.63976 1.58846,-1.69321 2.19864,-2.36876 0.61019,-0.67554 1.5887,-1.78763 2.1991,-2.50012 0.61041,-0.71251 1.58995,-1.88491 2.20032,-2.63514 0.61038,-0.75022 1.5887,-1.98385 2.19888,-2.77203 0.61018,-0.78817 1.58873,-2.08299 2.19885,-2.90869 0.61014,-0.82568 1.58856,-2.18047 2.19864,-3.04238 0.61008,-0.86189 2.1984,-3.1697 2.1984,-3.1697"
                           style="fill:none;stroke:#2ca02c;stroke-width:0.79701;stroke-linecap:butt;stroke-linejoin:miter;stroke-miterlimit:10;stroke-dasharray:none;stroke-opacity:1"
                           id="path188" /></g><g
                         id="g190"><path
                           d="m -101.5296,68.0168 c 0,0 1.58853,0 2.19888,0 0.61034,0 1.58965,-2e-5 2.20006,-2e-5 0.6104,0 1.58919,0 2.19936,0 0.61018,0 1.58837,0 2.19839,0 0.61,0 1.58801,-1e-5 2.19815,-1e-5 0.61012,0 1.58896,-2e-5 2.19934,-2e-5 0.61037,0 1.58943,-1e-5 2.19983,-1e-5 0.61041,0 1.58939,-3e-5 2.19959,-3e-5 0.61021,0 1.58831,-3e-5 2.19839,-3e-5 0.61008,0 1.58859,-3e-5 2.19864,-3e-5 0.61003,0 1.5879,-5e-5 2.19813,-6e-5 0.61025,-2e-5 1.58971,-6e-5 2.20008,-8e-5 0.61038,-1e-5 1.58882,-8e-5 2.19912,-9e-5 0.6103,-2e-5 1.58933,-9e-5 2.19959,-1.2e-4 0.61028,-2e-5 1.58878,-1.1e-4 2.19888,-1.6e-4 0.6101,-4e-5 1.58818,-1.5e-4 2.19838,-2.1e-4 0.61022,-6e-5 1.58949,-2e-4 2.19959,-2.9e-4 0.6101,-9e-5 1.58746,-2.6e-4 2.19766,-3.8e-4 0.61021,-1.2e-4 1.58998,-3.5e-4 2.20032,-5e-4 0.61035,-1.6e-4 1.58842,-4.5e-4 2.19864,-6.6e-4 0.61019,-2.1e-4 1.58911,-6.1e-4 2.19934,-8.9e-4 0.61024,-2.7e-4 1.58917,-7.9e-4 2.19888,-0.0011 0.6097,-3.7e-4 1.58525,-0.001 2.1955,-0.0015 0.61022,-4.8e-4 1.59201,-0.0014 2.20271,-0.002 0.61072,-6.3e-4 1.5888,-0.0018 2.19888,-0.0026 0.61008,-8.4e-4 1.58811,-0.0023 2.19815,-0.0035 0.61003,-0.0011 1.58846,-0.0031 2.19862,-0.0046 0.61019,-0.0015 1.5887,-0.0041 2.19912,-0.006 0.6104,-0.0019 1.58993,-0.0053 2.20032,-0.0078 0.61036,-0.0025 1.58868,-0.007 2.19885,-0.01023 0.61018,-0.0033 1.58874,-0.0091 2.19888,-0.01331 0.61013,-0.0042 1.58856,-0.01176 2.19863,-0.01721 0.61007,-0.0054 1.58828,-0.01513 2.19839,-0.02209 0.61009,-0.007 1.58853,-0.01932 2.19887,-0.02816 0.61035,-0.0088 1.58966,-0.02447 2.20005,-0.03555 0.61042,-0.01106 1.58919,-0.03059 2.19938,-0.04431 0.61016,-0.0137 1.58838,-0.0378 2.19838,-0.0545 0.61001,-0.01671 1.58801,-0.04598 2.19815,-0.06601 0.61013,-0.02004 1.58897,-0.0549 2.19934,-0.07851 0.61038,-0.0236 1.58943,-0.06438 2.19984,-0.09166 0.6104,-0.02726 1.58937,-0.07402 2.19959,-0.10493 0.6102,-0.0309 1.58833,-0.08347 2.19839,-0.11785 0.61008,-0.03438 1.58858,-0.09238 2.19862,-0.12994 0.61005,-0.03757 1.58793,-0.10045 2.19817,-0.14084 0.61023,-0.04039 1.58968,-0.10751 2.20006,-0.15034 0.61037,-0.04282 1.58882,-0.11351 2.19911,-0.15836 0.61029,-0.04485 1.5893,-0.11844 2.19956,-0.16495 0.61027,-0.04649 1.58877,-0.12242 2.19888,-0.17022 0.61011,-0.04781 1.58818,-0.12555 2.19839,-0.1744 0.6102,-0.04884 1.58948,-0.12802 2.19959,-0.17769 0.61009,-0.04966 1.58746,-0.12996 2.19768,-0.18029 0.61019,-0.05033 1.58995,-0.1316 2.2003,-0.18258 0.61033,-0.05096 1.58842,-0.13319 2.19862,-0.18483 0.61022,-0.05162 1.58911,-0.13491 2.19936,-0.18731 0.61023,-0.0524 1.58915,-0.13704 2.19887,-0.19042 0.60971,-0.05337 1.58526,-0.13974 2.19549,-0.19435 0.61025,-0.05459 1.59201,-0.14313 2.20273,-0.19926 0.6107,-0.05612 1.58881,-0.14736 2.19887,-0.20531 0.61007,-0.05797 1.5881,-0.15242 2.19815,-0.21254 0.61004,-0.06013 1.58845,-0.15828 2.19864,-0.22082 0.61017,-0.06257 1.58868,-0.16488 2.19909,-0.23013 0.6104,-0.06527 1.58995,-0.17211 2.20032,-0.24029 0.61038,-0.06817 1.5887,-0.17988 2.19888,-0.25117 0.61017,-0.07128 1.58872,-0.18808 2.19886,-0.26262 0.61013,-0.07454 1.58856,-0.19672 2.19864,-0.27466 0.61006,-0.07794 1.58828,-0.20569 2.19837,-0.2872 0.61011,-0.08151 1.58854,-0.21509 2.19889,-0.30034 0.61033,-0.08525 1.58966,-0.22497 2.20007,-0.31416 0.6104,-0.08919 1.58917,-0.23538 2.19934,-0.32876 0.61019,-0.09335 1.58838,-0.24638 2.1984,-0.34412 0.61,-0.09775 1.58801,-0.25803 2.19813,-0.36043 0.61014,-0.1024 1.58899,-0.27034 2.19937,-0.37765 0.61037,-0.1073 1.58942,-0.28333 2.19983,-0.39587 0.6104,-0.11251 1.58939,-0.29712 2.19959,-0.41514 0.61021,-0.11803 1.58832,-0.31172 2.19839,-0.43559 0.61006,-0.12389 1.58859,-0.32721 2.19863,-0.45728 0.61004,-0.13007 1.5879,-0.34362 2.19815,-0.48026 0.61024,-0.13662 1.5897,-0.36097 2.20007,-0.50454 0.61038,-0.14357 1.58881,-0.37934 2.19911,-0.53025 0.61029,-0.1509 1.58931,-0.39877 2.19959,-0.55741 0.61026,-0.15865 1.58877,-0.41926 2.19886,-0.58605 0.61011,-0.16679 1.58818,-0.44079 2.1984,-0.61616 0.61021,-0.17537 1.58949,-0.46347 2.19958,-0.64785 0.61011,-0.18435 1.58747,-0.4872 2.19768,-0.68098 0.61022,-0.19377 1.58997,-0.51205 2.2003,-0.71567 0.61036,-0.2036 1.58843,-0.53796 2.19864,-0.75175 0.6102,-0.21381 1.5891,-0.56487 2.19935,-0.78926 0.61024,-0.2244 1.58917,-0.59274 2.19886,-0.82807 0.60971,-0.23533 1.58527,-0.62149 2.19551,-0.86812 0.61023,-0.24661 1.59201,-0.65113 2.20272,-0.90937 0.61071,-0.25824 1.5888,-0.68169 2.19888,-0.95189 0.61006,-0.27021 1.5881,-0.71309 2.19813,-0.99559 0.61005,-0.2825 1.58846,-0.7454 2.19864,-1.04052 0.61019,-0.29512 1.5887,-0.77856 2.1991,-1.08654 0.61041,-0.308 1.58995,-0.81232 2.20032,-1.13334 0.61038,-0.321 1.5887,-0.84634 2.19888,-1.18028 0.61018,-0.33395 1.58873,-0.88006 2.19885,-1.22654 0.61014,-0.34648 1.58856,-0.91253 2.19864,-1.27078 0.61008,-0.35827 2.1984,-1.31138 2.1984,-1.31138"
                           style="fill:none;stroke:#d62728;stroke-width:0.79701;stroke-linecap:butt;stroke-linejoin:miter;stroke-miterlimit:10;stroke-dasharray:none;stroke-opacity:1"
                           id="path192" /></g></g></g><g
                     id="g194"><g
                       id="g196"
                       transform="rotate(90,-79.628,-79.215)"><g
                         id="g198"><g
                           id="g200"
                           transform="translate(-15.602,-120.609)"><text
                             transform="matrix(1,0,0,-1,15.602,120.609)"
                             style="font-variant:normal;font-weight:normal;font-size:9.96264px;font-family:LMSans10;-inkscape-font-specification:LMSans10-Regular;writing-mode:lr-tb;fill:#46413c;fill-opacity:1;fill-rule:nonzero;stroke:none"
                             id="text204"><tspan
                               x="0 8.71731 13.50934 18.49066 23.641344 26.022415 29.618929 34.769615 39.9203 47.66127 51.536736 56.68742 63.332504"
                               y="0"
                               sodipodi:role="line"
                               id="tspan202">Magnitude(dB)</tspan></text><g
                             id="g206"
                             transform="translate(15.602,120.609)" /></g></g><g
                         id="g208"
                         transform="translate(158.843,-0.413)" /></g></g></g></g><g
                 id="g210"
                 transform="translate(-169.635,-13.645)" /></g><g
               id="g212"
               transform="translate(46.336,6.841)" /></g><g
             id="g214" /><g
             id="g216" /><g
             id="g218" /><g
             id="g220" /><g
             id="g222"><g
               id="g224" /></g><g
             id="g226" /><g
             id="g228" /><g
             id="g230" /><g
             id="g232" /><g
             id="g234"
             transform="translate(-51.146,-113.392)"><g
               id="g236"
               transform="translate(174.445,38.556)"><g
                 id="g238"><g
                   id="g240" /><g
                   id="g242"><g
                     id="g244"><g
                       id="g246"><g
                         id="g248"><path
                           d="m -108.85092,-6.80367 v 4.25194 m 36.28364,-4.25194 v 4.25194 m 36.28365,-4.25194 v 4.25194 M 0,-6.80367 v 4.25194 m 36.28363,-4.25194 v 4.25194 m 36.28365,-4.25194 v 4.25194 m 36.28364,-4.25194 v 4.25194 m -217.70184,77.388 v -4.25192 m 36.28364,4.25192 v -4.25192 m 36.28365,4.25192 V 70.58435 M 0,74.83627 v -4.25192 m 36.28363,4.25192 v -4.25192 m 36.28365,4.25192 v -4.25192 m 36.28364,4.25192 v -4.25192"
                           style="fill:none;stroke:#808080;stroke-width:0.19925;stroke-linecap:butt;stroke-linejoin:miter;stroke-miterlimit:10;stroke-dasharray:none;stroke-opacity:1"
                           id="path250" /></g></g><g
                       id="g252"><g
                         id="g254"><path
                           d="m -123.30095,15.1631 h 4.25011 m -4.25011,26.43776 h 4.25011 m -4.25011,26.43776 h 4.25011 M 137.94356,15.1631 h -4.25011 m 4.25011,26.43776 h -4.25011 m 4.25011,26.43776 h -4.25011"
                           style="fill:none;stroke:#808080;stroke-width:0.19925;stroke-linecap:butt;stroke-linejoin:miter;stroke-miterlimit:10;stroke-dasharray:none;stroke-opacity:1"
                           id="path256" /></g></g><path
                       d="M -123.30095,-6.80367 V 74.83627 H 137.94356 V -6.80367 Z"
                       style="fill:none;stroke:#46413c;stroke-width:0.3985;stroke-linecap:butt;stroke-linejoin:miter;stroke-miterlimit:10;stroke-dasharray:none;stroke-opacity:1"
                       id="path258" /><g
                       id="g260"><g
                         id="g262"
                         transform="translate(-119.179,-18.433)"><g
                           id="g264"><g
                             id="g266"
                             transform="translate(-55.266,-20.123)"><text
                               transform="matrix(1,0,0,-1,55.266,20.123)"
                               style="font-variant:normal;font-weight:normal;font-size:9.96264px;font-family:CMR10;-inkscape-font-specification:CMR10;writing-mode:lr-tb;fill:#46413c;fill-opacity:1;fill-rule:nonzero;stroke:none"
                               id="text270"><tspan
                                 x="0 4.9813199"
                                 y="0"
                                 sodipodi:role="line"
                                 id="tspan268">10</tspan></text><text
                               transform="matrix(1,0,0,-1,65.229,23.739)"
                               style="font-variant:normal;font-weight:normal;font-size:6.97385px;font-family:CMSY7;-inkscape-font-specification:CMSY7;writing-mode:lr-tb;fill:#46413c;fill-opacity:1;fill-rule:nonzero;stroke:none"
                               id="text274"><tspan
                                 x="0"
                                 y="0"
                                 id="tspan272">−</tspan></text><text
                               transform="matrix(1,0,0,-1,71.456,23.739)"
                               style="font-variant:normal;font-weight:normal;font-size:6.97385px;font-family:CMR7;-inkscape-font-specification:CMR7;writing-mode:lr-tb;fill:#46413c;fill-opacity:1;fill-rule:nonzero;stroke:none"
                               id="text278"><tspan
                                 x="0"
                                 y="0"
                                 id="tspan276">3</tspan></text><g
                               id="g280"
                               transform="translate(55.266,20.123)" /></g></g><g
                           id="g282"
                           transform="translate(119.179,18.433)" /></g></g><g
                       id="g284"><g
                         id="g286"
                         transform="translate(-82.896,-18.433)"><g
                           id="g288"><g
                             id="g290"
                             transform="translate(-91.549,-20.123)"><text
                               transform="matrix(1,0,0,-1,91.549,20.123)"
                               style="font-variant:normal;font-weight:normal;font-size:9.96264px;font-family:CMR10;-inkscape-font-specification:CMR10;writing-mode:lr-tb;fill:#46413c;fill-opacity:1;fill-rule:nonzero;stroke:none"
                               id="text294"><tspan
                                 x="0 4.9813199"
                                 y="0"
                                 sodipodi:role="line"
                                 id="tspan292">10</tspan></text><text
                               transform="matrix(1,0,0,-1,101.512,23.739)"
                               style="font-variant:normal;font-weight:normal;font-size:6.97385px;font-family:CMSY7;-inkscape-font-specification:CMSY7;writing-mode:lr-tb;fill:#46413c;fill-opacity:1;fill-rule:nonzero;stroke:none"
                               id="text298"><tspan
                                 x="0"
                                 y="0"
                                 id="tspan296">−</tspan></text><text
                               transform="matrix(1,0,0,-1,107.739,23.739)"
                               style="font-variant:normal;font-weight:normal;font-size:6.97385px;font-family:CMR7;-inkscape-font-specification:CMR7;writing-mode:lr-tb;fill:#46413c;fill-opacity:1;fill-rule:nonzero;stroke:none"
                               id="text302"><tspan
                                 x="0"
                                 y="0"
                                 id="tspan300">2</tspan></text><g
                               id="g304"
                               transform="translate(91.549,20.123)" /></g></g><g
                           id="g306"
                           transform="translate(82.896,18.433)" /></g></g><g
                       id="g308"><g
                         id="g310"
                         transform="translate(-46.612,-18.433)"><g
                           id="g312"><g
                             id="g314"
                             transform="translate(-127.833,-20.123)"><text
                               transform="matrix(1,0,0,-1,127.833,20.123)"
                               style="font-variant:normal;font-weight:normal;font-size:9.96264px;font-family:CMR10;-inkscape-font-specification:CMR10;writing-mode:lr-tb;fill:#46413c;fill-opacity:1;fill-rule:nonzero;stroke:none"
                               id="text318"><tspan
                                 x="0 4.9813199"
                                 y="0"
                                 sodipodi:role="line"
                                 id="tspan316">10</tspan></text><text
                               transform="matrix(1,0,0,-1,137.795,23.739)"
                               style="font-variant:normal;font-weight:normal;font-size:6.97385px;font-family:CMSY7;-inkscape-font-specification:CMSY7;writing-mode:lr-tb;fill:#46413c;fill-opacity:1;fill-rule:nonzero;stroke:none"
                               id="text322"><tspan
                                 x="0"
                                 y="0"
                                 id="tspan320">−</tspan></text><text
                               transform="matrix(1,0,0,-1,144.022,23.739)"
                               style="font-variant:normal;font-weight:normal;font-size:6.97385px;font-family:CMR7;-inkscape-font-specification:CMR7;writing-mode:lr-tb;fill:#46413c;fill-opacity:1;fill-rule:nonzero;stroke:none"
                               id="text326"><tspan
                                 x="0"
                                 y="0"
                                 id="tspan324">1</tspan></text><g
                               id="g328"
                               transform="translate(127.833,20.123)" /></g></g><g
                           id="g330"
                           transform="translate(46.612,18.433)" /></g></g><g
                       id="g332"><g
                         id="g334"
                         transform="translate(-7.216,-18.433)"><g
                           id="g336"><g
                             id="g338"
                             transform="translate(-167.229,-20.123)"><text
                               transform="matrix(1,0,0,-1,167.229,20.123)"
                               style="font-variant:normal;font-weight:normal;font-size:9.96264px;font-family:CMR10;-inkscape-font-specification:CMR10;writing-mode:lr-tb;fill:#46413c;fill-opacity:1;fill-rule:nonzero;stroke:none"
                               id="text342"><tspan
                                 x="0 4.9813199"
                                 y="0"
                                 sodipodi:role="line"
                                 id="tspan340">10</tspan></text><text
                               transform="matrix(1,0,0,-1,177.192,23.739)"
                               style="font-variant:normal;font-weight:normal;font-size:6.97385px;font-family:CMR7;-inkscape-font-specification:CMR7;writing-mode:lr-tb;fill:#46413c;fill-opacity:1;fill-rule:nonzero;stroke:none"
                               id="text346"><tspan
                                 x="0"
                                 y="0"
                                 id="tspan344">0</tspan></text><g
                               id="g348"
                               transform="translate(167.229,20.123)" /></g></g><g
                           id="g350"
                           transform="translate(7.216,18.433)" /></g></g><g
                       id="g352"><g
                         id="g354"
                         transform="translate(29.067,-18.433)"><g
                           id="g356"><g
                             id="g358"
                             transform="translate(-203.512,-20.123)"><text
                               transform="matrix(1,0,0,-1,203.512,20.123)"
                               style="font-variant:normal;font-weight:normal;font-size:9.96264px;font-family:CMR10;-inkscape-font-specification:CMR10;writing-mode:lr-tb;fill:#46413c;fill-opacity:1;fill-rule:nonzero;stroke:none"
                               id="text362"><tspan
                                 x="0 4.9813199"
                                 y="0"
                                 sodipodi:role="line"
                                 id="tspan360">10</tspan></text><text
                               transform="matrix(1,0,0,-1,213.475,23.739)"
                               style="font-variant:normal;font-weight:normal;font-size:6.97385px;font-family:CMR7;-inkscape-font-specification:CMR7;writing-mode:lr-tb;fill:#46413c;fill-opacity:1;fill-rule:nonzero;stroke:none"
                               id="text366"><tspan
                                 x="0"
                                 y="0"
                                 id="tspan364">1</tspan></text><g
                               id="g368"
                               transform="translate(203.512,20.123)" /></g></g><g
                           id="g370"
                           transform="translate(-29.067,18.433)" /></g></g><g
                       id="g372"><g
                         id="g374"
                         transform="translate(65.35,-18.433)"><g
                           id="g376"><g
                             id="g378"
                             transform="translate(-239.795,-20.123)"><text
                               transform="matrix(1,0,0,-1,239.795,20.123)"
                               style="font-variant:normal;font-weight:normal;font-size:9.96264px;font-family:CMR10;-inkscape-font-specification:CMR10;writing-mode:lr-tb;fill:#46413c;fill-opacity:1;fill-rule:nonzero;stroke:none"
                               id="text382"><tspan
                                 x="0 4.9813199"
                                 y="0"
                                 sodipodi:role="line"
                                 id="tspan380">10</tspan></text><text
                               transform="matrix(1,0,0,-1,249.758,23.739)"
                               style="font-variant:normal;font-weight:normal;font-size:6.97385px;font-family:CMR7;-inkscape-font-specification:CMR7;writing-mode:lr-tb;fill:#46413c;fill-opacity:1;fill-rule:nonzero;stroke:none"
                               id="text386"><tspan
                                 x="0"
                                 y="0"
                                 id="tspan384">2</tspan></text><g
                               id="g388"
                               transform="translate(239.795,20.123)" /></g></g><g
                           id="g390"
                           transform="translate(-65.35,18.433)" /></g></g><g
                       id="g392"><g
                         id="g394"
                         transform="translate(101.634,-18.433)"><g
                           id="g396"><g
                             id="g398"
                             transform="translate(-276.079,-20.123)"><text
                               transform="matrix(1,0,0,-1,276.079,20.123)"
                               style="font-variant:normal;font-weight:normal;font-size:9.96264px;font-family:CMR10;-inkscape-font-specification:CMR10;writing-mode:lr-tb;fill:#46413c;fill-opacity:1;fill-rule:nonzero;stroke:none"
                               id="text402"><tspan
                                 x="0 4.9813199"
                                 y="0"
                                 sodipodi:role="line"
                                 id="tspan400">10</tspan></text><text
                               transform="matrix(1,0,0,-1,286.041,23.739)"
                               style="font-variant:normal;font-weight:normal;font-size:6.97385px;font-family:CMR7;-inkscape-font-specification:CMR7;writing-mode:lr-tb;fill:#46413c;fill-opacity:1;fill-rule:nonzero;stroke:none"
                               id="text406"><tspan
                                 x="0"
                                 y="0"
                                 id="tspan404">3</tspan></text><g
                               id="g408"
                               transform="translate(276.079,20.123)" /></g></g><g
                           id="g410"
                           transform="translate(-101.634,18.433)" /></g></g><g
                       id="g412"><g
                         id="g414"
                         transform="translate(-157.261,12.922)"><g
                           id="g416"><g
                             id="g418"
                             transform="translate(-17.184,-51.478)"><text
                               transform="matrix(1,0,0,-1,17.184,51.478)"
                               style="font-variant:normal;font-weight:normal;font-size:9.96264px;font-family:CMSY10;-inkscape-font-specification:CMSY10;writing-mode:lr-tb;fill:#46413c;fill-opacity:1;fill-rule:nonzero;stroke:none"
                               id="text422"><tspan
                                 x="0"
                                 y="0"
                                 id="tspan420">−</tspan></text><text
                               transform="matrix(1,0,0,-1,24.933,51.478)"
                               style="font-variant:normal;font-weight:normal;font-size:9.96264px;font-family:CMR10;-inkscape-font-specification:CMR10;writing-mode:lr-tb;fill:#46413c;fill-opacity:1;fill-rule:nonzero;stroke:none"
                               id="text426"><tspan
                                 x="0"
                                 y="0"
                                 id="tspan424">2</tspan></text><text
                               transform="matrix(1,0,0,-1,29.915,51.478)"
                               style="font-variant:normal;font-weight:normal;font-size:9.96264px;font-family:CMMI10;-inkscape-font-specification:CMMI10;writing-mode:lr-tb;fill:#46413c;fill-opacity:1;fill-rule:nonzero;stroke:none"
                               id="text430"><tspan
                                 x="0"
                                 y="0"
                                 id="tspan428">,</tspan></text><text
                               transform="matrix(1,0,0,-1,32.682,51.478)"
                               style="font-variant:normal;font-weight:normal;font-size:9.96264px;font-family:CMR10;-inkscape-font-specification:CMR10;writing-mode:lr-tb;fill:#46413c;fill-opacity:1;fill-rule:nonzero;stroke:none"
                               id="text434"><tspan
                                 x="0 4.9813199 9.9626398"
                                 y="0"
                                 sodipodi:role="line"
                                 id="tspan432">000</tspan></text><g
                               id="g436"
                               transform="translate(17.184,51.478)" /></g></g><g
                           id="g438"
                           transform="translate(157.261,-12.922)" /></g></g><g
                       id="g440"><g
                         id="g442"
                         transform="translate(-157.261,39.359)"><g
                           id="g444"><g
                             id="g446"
                             transform="translate(-17.184,-77.915)"><text
                               transform="matrix(1,0,0,-1,17.184,77.915)"
                               style="font-variant:normal;font-weight:normal;font-size:9.96264px;font-family:CMSY10;-inkscape-font-specification:CMSY10;writing-mode:lr-tb;fill:#46413c;fill-opacity:1;fill-rule:nonzero;stroke:none"
                               id="text450"><tspan
                                 x="0"
                                 y="0"
                                 id="tspan448">−</tspan></text><text
                               transform="matrix(1,0,0,-1,24.933,77.915)"
                               style="font-variant:normal;font-weight:normal;font-size:9.96264px;font-family:CMR10;-inkscape-font-specification:CMR10;writing-mode:lr-tb;fill:#46413c;fill-opacity:1;fill-rule:nonzero;stroke:none"
                               id="text454"><tspan
                                 x="0"
                                 y="0"
                                 id="tspan452">1</tspan></text><text
                               transform="matrix(1,0,0,-1,29.915,77.915)"
                               style="font-variant:normal;font-weight:normal;font-size:9.96264px;font-family:CMMI10;-inkscape-font-specification:CMMI10;writing-mode:lr-tb;fill:#46413c;fill-opacity:1;fill-rule:nonzero;stroke:none"
                               id="text458"><tspan
                                 x="0"
                                 y="0"
                                 id="tspan456">,</tspan></text><text
                               transform="matrix(1,0,0,-1,32.682,77.915)"
                               style="font-variant:normal;font-weight:normal;font-size:9.96264px;font-family:CMR10;-inkscape-font-specification:CMR10;writing-mode:lr-tb;fill:#46413c;fill-opacity:1;fill-rule:nonzero;stroke:none"
                               id="text462"><tspan
                                 x="0 4.9813199 9.9626398"
                                 y="0"
                                 sodipodi:role="line"
                                 id="tspan460">000</tspan></text><g
                               id="g464"
                               transform="translate(17.184,77.915)" /></g></g><g
                           id="g466"
                           transform="translate(157.261,-39.359)" /></g></g><g
                       id="g468"><g
                         id="g470"
                         transform="translate(-131.8,64.828)"><g
                           id="g472"><g
                             id="g474"
                             transform="translate(-42.645,-103.384)"><text
                               transform="matrix(1,0,0,-1,42.645,103.384)"
                               style="font-variant:normal;font-weight:normal;font-size:9.96264px;font-family:CMR10;-inkscape-font-specification:CMR10;writing-mode:lr-tb;fill:#46413c;fill-opacity:1;fill-rule:nonzero;stroke:none"
                               id="text478"><tspan
                                 x="0"
                                 y="0"
                                 id="tspan476">0</tspan></text><g
                               id="g480"
                               transform="translate(42.645,103.384)" /></g></g><g
                           id="g482"
                           transform="translate(131.8,-64.828)" /></g></g><g
                       id="g484"
                       clip-path="url(#clipPath488)"><g
                         id="g490"><path
                           d="m -101.5296,68.0326 c 0,0 1.58853,-6.5e-4 2.19888,-9e-4 0.61034,-2.7e-4 1.58965,-7.6e-4 2.20006,-0.0011 0.6104,-3.1e-4 1.58919,-8.4e-4 2.19936,-0.0012 0.61018,-3.5e-4 1.58837,-9.6e-4 2.19839,-0.0014 0.61,-4.2e-4 1.58801,-0.0011 2.19815,-0.0016 0.61012,-4.6e-4 1.58896,-0.0013 2.19934,-0.0018 0.61037,-5.2e-4 1.58943,-0.0015 2.19983,-0.0021 0.61041,-6.2e-4 1.58939,-0.0017 2.19959,-0.0024 0.61021,-7.2e-4 1.58831,-0.002 2.19839,-0.0028 0.61008,-8.2e-4 1.58859,-0.0022 2.19864,-0.0032 0.61003,-9.5e-4 1.5879,-0.0026 2.19813,-0.0037 0.61025,-0.0011 1.58971,-0.0029 2.20008,-0.0042 0.61038,-0.0013 1.58882,-0.0034 2.19912,-0.0048 0.6103,-0.0014 1.58933,-0.0039 2.19959,-0.0055 0.61028,-0.0016 1.58878,-0.0045 2.19888,-0.0064 0.6101,-0.0019 1.58818,-0.0052 2.19838,-0.0073 0.61022,-0.0022 1.58949,-0.0059 2.19959,-0.0084 0.6101,-0.0025 1.58746,-0.0068 2.19766,-0.0097 0.61021,-0.0029 1.58998,-0.0078 2.20032,-0.01112 0.61035,-0.0033 1.58842,-0.009 2.19864,-0.01278 0.61019,-0.0038 1.58911,-0.01031 2.19934,-0.01468 0.61024,-0.0044 1.58917,-0.01182 2.19888,-0.01684 0.6097,-0.005 1.58525,-0.0136 2.1955,-0.01933 0.61022,-0.0058 1.59201,-0.0156 2.20271,-0.02219 0.61072,-0.0066 1.5888,-0.01785 2.19888,-0.02541 0.61008,-0.0075 1.58811,-0.02046 2.19815,-0.02911 0.61003,-0.0087 1.58846,-0.02338 2.19862,-0.03326 0.61019,-0.0099 1.5887,-0.0267 2.19912,-0.03795 0.6104,-0.01126 1.58993,-0.03045 2.20032,-0.04325 0.61036,-0.01278 1.58868,-0.03456 2.19885,-0.04907 0.61018,-0.01449 1.58874,-0.03914 2.19888,-0.0555 0.61013,-0.01635 1.58856,-0.04411 2.19863,-0.06246 0.61007,-0.01835 1.58828,-0.04943 2.19839,-0.06987 0.61009,-0.02045 1.58853,-0.05498 2.19887,-0.07758 0.61035,-0.02258 1.58966,-0.06059 2.20005,-0.0853 0.61042,-0.0247 1.58919,-0.0661 2.19938,-0.09277 0.61016,-0.02667 1.58838,-0.07115 2.19838,-0.09958 0.61001,-0.02843 1.58801,-0.0755 2.19815,-0.10532 0.61013,-0.02981 1.58897,-0.07884 2.19934,-0.1096 0.61038,-0.03075 1.58943,-0.08093 2.19984,-0.11214 0.6104,-0.03121 1.58937,-0.08166 2.19959,-0.11281 0.6102,-0.03112 1.58833,-0.08105 2.19839,-0.11164 0.61008,-0.03058 1.58858,-0.07923 2.19862,-0.1089 0.61005,-0.02968 1.58793,-0.07653 2.19817,-0.10503 0.61023,-0.0285 1.58968,-0.07323 2.20006,-0.10043 0.61037,-0.0272 1.58882,-0.0697 2.19911,-0.0956 0.61029,-0.0259 1.5893,-0.06632 2.19956,-0.09102 0.61027,-0.0247 1.58877,-0.06332 2.19888,-0.08707 0.61011,-0.02372 1.58818,-0.06097 2.19839,-0.08403 0.6102,-0.02305 1.58948,-0.05944 2.19959,-0.08218 0.61009,-0.02272 1.58746,-0.05888 2.19768,-0.0817 0.61019,-0.0228 1.58995,-0.05937 2.2003,-0.08267 0.61033,-0.02328 1.58842,-0.06102 2.19862,-0.0852 0.61022,-0.02419 1.58911,-0.06369 2.19936,-0.08921 0.61023,-0.02551 1.58915,-0.06745 2.19887,-0.09465 0.60971,-0.02717 1.58526,-0.07212 2.19549,-0.1013 0.61025,-0.02917 1.59201,-0.07759 2.20273,-0.10902 0.6107,-0.03144 1.58881,-0.08368 2.19887,-0.11755 0.61007,-0.0339 1.5881,-0.09022 2.19815,-0.12669 0.61004,-0.03646 1.58845,-0.09704 2.19864,-0.13618 0.61017,-0.03914 1.58868,-0.10408 2.19909,-0.14597 0.6104,-0.04188 1.58995,-0.11126 2.20032,-0.15594 0.61038,-0.04468 1.5887,-0.11858 2.19888,-0.16611 0.61017,-0.04754 1.58872,-0.12607 2.19886,-0.17657 0.61013,-0.05051 1.58856,-0.13385 2.19864,-0.18743 0.61006,-0.05357 1.58828,-0.14195 2.19837,-0.19876 0.61011,-0.05679 1.58854,-0.15045 2.19889,-0.21058 0.61033,-0.06014 1.58966,-0.15932 2.20007,-0.22295 0.6104,-0.06364 1.58917,-0.16849 2.19934,-0.23573 0.61019,-0.06723 1.58838,-0.17797 2.1984,-0.2489 0.61,-0.07093 1.58801,-0.18769 2.19813,-0.26239 0.61014,-0.07473 1.58899,-0.19762 2.19937,-0.2762 0.61037,-0.07857 1.58942,-0.2077 2.19983,-0.29024 0.6104,-0.08252 1.58939,-0.21802 2.19959,-0.3046 0.61021,-0.08658 1.58832,-0.22862 2.19839,-0.31939 0.61006,-0.09078 1.58859,-0.23966 2.19863,-0.33483 0.61004,-0.09517 1.5879,-0.25125 2.19815,-0.35112 0.61024,-0.09985 1.5897,-0.2637 2.20007,-0.3687 0.61038,-0.10498 1.58881,-0.27737 2.19911,-0.38802 0.61029,-0.11065 1.58931,-0.29255 2.19959,-0.40955 0.61026,-0.11702 1.58877,-0.30963 2.19886,-0.43379 0.61011,-0.12416 1.58818,-0.32889 2.1984,-0.46113 0.61021,-0.13223 1.58949,-0.35063 2.19958,-0.49189 0.61011,-0.14125 1.58747,-0.37494 2.19768,-0.52624 0.61022,-0.15128 1.58997,-0.40188 2.2003,-0.56422 0.61036,-0.16235 1.58843,-0.43147 2.19864,-0.60586 0.6102,-0.1744 1.5891,-0.46366 2.19935,-0.65114 0.61024,-0.18748 1.58917,-0.49852 2.19886,-0.70017 0.60971,-0.20166 1.58527,-0.53624 2.19551,-0.75321 0.61023,-0.21699 1.59201,-0.57705 2.20272,-0.81064 0.61071,-0.2336 1.5888,-0.62133 2.19888,-0.87296 0.61006,-0.25165 1.5881,-0.66945 2.19813,-0.94073 0.61005,-0.27129 1.58846,-0.72184 2.19864,-1.01451 0.61019,-0.2927 1.5887,-0.77898 2.1991,-1.09496 0.61041,-0.316 1.58995,-0.84117 2.20032,-1.18257 0.61038,-0.34139 1.5887,-0.90893 2.19888,-1.27797 0.61018,-0.36902 1.58873,-0.98268 2.19885,-1.38173 0.61014,-0.39906 1.58856,-1.06281 2.19864,-1.49437 0.61008,-0.43158 2.1984,-1.61616 2.1984,-1.61616"
                           style="fill:none;stroke:#1f77b4;stroke-width:0.79701;stroke-linecap:butt;stroke-linejoin:miter;stroke-miterlimit:10;stroke-dasharray:none;stroke-opacity:1"
                           id="path492" /></g><g
                         id="g494"><path
                           d="m -101.5296,68.03159 c 0,0 1.58853,-7.5e-4 2.19888,-0.0011 0.61034,-3e-4 1.58965,-8.7e-4 2.20006,-0.0012 0.6104,-3.5e-4 1.58919,-9.7e-4 2.19936,-0.0014 0.61018,-4.1e-4 1.58837,-0.0011 2.19839,-0.0016 0.61,-4.7e-4 1.58801,-0.0013 2.19815,-0.0018 0.61012,-5.5e-4 1.58896,-0.0015 2.19934,-0.0021 0.61037,-6.2e-4 1.58943,-0.0017 2.19983,-0.0024 0.61041,-7.2e-4 1.58939,-0.002 2.19959,-0.0028 0.61021,-8.2e-4 1.58831,-0.0023 2.19839,-0.0032 0.61008,-9.6e-4 1.58859,-0.0026 2.19864,-0.0037 0.61003,-0.0011 1.5879,-0.003 2.19813,-0.0043 0.61025,-0.0013 1.58971,-0.0034 2.20008,-0.0049 0.61038,-0.0015 1.58882,-0.004 2.19912,-0.0056 0.6103,-0.0017 1.58933,-0.0045 2.19959,-0.0065 0.61028,-0.0019 1.58878,-0.0052 2.19888,-0.0074 0.6101,-0.0022 1.58818,-0.006 2.19838,-0.0086 0.61022,-0.0025 1.58949,-0.0069 2.19959,-0.0098 0.6101,-0.0029 1.58746,-0.0079 2.19766,-0.01131 0.61021,-0.0033 1.58998,-0.0091 2.20032,-0.01297 0.61035,-0.0039 1.58842,-0.01045 2.19864,-0.01489 0.61019,-0.0044 1.58911,-0.01204 2.19934,-0.01713 0.61024,-0.0051 1.58917,-0.0138 2.19888,-0.01966 0.6097,-0.0058 1.58525,-0.01585 2.1955,-0.02257 0.61022,-0.0067 1.59201,-0.0182 2.20271,-0.02591 0.61072,-0.0077 1.5888,-0.02085 2.19888,-0.02969 0.61008,-0.0088 1.58811,-0.02389 2.19815,-0.034 0.61003,-0.01011 1.58846,-0.02735 2.19862,-0.03892 0.61019,-0.01157 1.5887,-0.03127 2.19912,-0.04446 0.6104,-0.0132 1.58993,-0.03568 2.20032,-0.05071 0.61036,-0.01501 1.58868,-0.04059 2.19885,-0.05765 0.61018,-0.01707 1.58874,-0.04608 2.19888,-0.06538 0.61013,-0.01932 1.58856,-0.05208 2.19863,-0.07381 0.61007,-0.02174 1.58828,-0.05859 2.19839,-0.08293 0.61009,-0.02434 1.58853,-0.06549 2.19887,-0.09254 0.61035,-0.02707 1.58966,-0.0727 2.20005,-0.10253 0.61042,-0.02984 1.58919,-0.07999 2.19938,-0.11256 0.61016,-0.03258 1.58838,-0.08708 2.19838,-0.12229 0.61001,-0.03518 1.58801,-0.09382 2.19815,-0.1314 0.61013,-0.03757 1.58897,-0.09986 2.19934,-0.13952 0.61038,-0.03967 1.58943,-0.10504 2.19984,-0.14645 0.6104,-0.0414 1.58937,-0.10928 2.19959,-0.1521 0.6102,-0.04283 1.58833,-0.11267 2.19839,-0.15663 0.61008,-0.04396 1.58858,-0.11537 2.19862,-0.16031 0.61005,-0.04493 1.58793,-0.11775 2.19817,-0.16365 0.61023,-0.04588 1.58968,-0.12018 2.20006,-0.16713 0.61037,-0.04694 1.58882,-0.12305 2.19911,-0.17129 0.61029,-0.04826 1.5893,-0.12664 2.19956,-0.17653 0.61027,-0.04992 1.58877,-0.13126 2.19888,-0.18328 0.61011,-0.052 1.58818,-0.13705 2.19839,-0.19162 0.6102,-0.05455 1.58948,-0.14409 2.19959,-0.20167 0.61009,-0.05759 1.58746,-0.15238 2.19768,-0.2134 0.61019,-0.06102 1.58995,-0.16166 2.2003,-0.2265 0.61033,-0.06482 1.58842,-0.17184 2.19862,-0.24075 0.61022,-0.06889 1.58911,-0.18268 2.19936,-0.25581 0.61023,-0.07314 1.58915,-0.19387 2.19887,-0.27137 0.60971,-0.0775 1.58526,-0.2053 2.19549,-0.28724 0.61025,-0.08194 1.59201,-0.21689 2.20273,-0.30333 0.6107,-0.08644 1.58881,-0.22866 2.19887,-0.31972 0.61007,-0.09105 1.5881,-0.24077 2.19815,-0.33662 0.61004,-0.09588 1.58845,-0.25342 2.19864,-0.35436 0.61017,-0.10095 1.58868,-0.26685 2.19909,-0.37323 0.6104,-0.10638 1.58995,-0.28126 2.20032,-0.39354 0.61038,-0.11229 1.5887,-0.29701 2.19888,-0.41576 0.61017,-0.11874 1.58872,-0.31425 2.19886,-0.44012 0.61013,-0.12587 1.58856,-0.33336 2.19864,-0.46713 0.61006,-0.13379 1.58828,-0.35458 2.19837,-0.49713 0.61011,-0.14255 1.58854,-0.3781 2.19889,-0.53034 0.61033,-0.15224 1.58966,-0.40407 2.20007,-0.56692 0.6104,-0.16286 1.58917,-0.4325 2.19934,-0.60691 0.61019,-0.17442 1.58838,-0.46331 2.1984,-0.65016 0.61,-0.18684 1.58801,-0.49642 2.19813,-0.69656 0.61014,-0.20012 1.58899,-0.53168 2.19937,-0.74594 0.61037,-0.21425 1.58942,-0.56909 2.19983,-0.79828 0.6104,-0.22919 1.58939,-0.60863 2.19959,-0.85359 0.61021,-0.24497 1.58832,-0.65038 2.19839,-0.91204 0.61006,-0.26165 1.58859,-0.69455 2.19863,-0.97391 0.61004,-0.27937 1.5879,-0.74143 2.19815,-1.03962 0.61024,-0.29819 1.5897,-0.79131 2.20007,-1.10958 0.61038,-0.31826 1.58881,-0.84458 2.19911,-1.18432 0.61029,-0.33974 1.58931,-0.90155 2.19959,-1.26428 0.61026,-0.36274 1.58877,-0.96265 2.19886,-1.35007 0.61011,-0.38742 1.58818,-1.02824 2.1984,-1.44223 0.61021,-0.414 1.58949,-1.09891 2.19958,-1.54158 0.61011,-0.44266 1.58747,-1.17523 2.19768,-1.64894 0.61022,-0.47371 1.58997,-1.25792 2.2003,-1.76532 0.61036,-0.50739 1.58843,-1.3477 2.19864,-1.89173 0.6102,-0.54403 1.5891,-1.4454 2.19935,-2.02931 0.61024,-0.58391 1.58917,-1.55182 2.19886,-2.17917 0.60971,-0.62733 1.58527,-1.66771 2.19551,-2.34234 0.61023,-0.67464 1.59201,-1.79391 2.20272,-2.52002 0.61071,-0.72611 1.5888,-1.93122 2.19888,-2.7133 0.61006,-0.78211 1.5881,-2.08057 2.19813,-2.92356 0.61005,-0.843 1.58846,-2.24298 2.19864,-3.15223 0.61019,-0.90928 1.5887,-2.41974 2.1991,-3.4011 0.61041,-0.98137 1.58995,-2.61212 2.20032,-3.67195 0.61038,-1.05983 1.5887,-2.82149 2.19888,-3.96669 0.61018,-1.14519 1.58873,-3.04924 2.19885,-4.28709 0.61014,-1.23784 1.58856,-4.61695 2.19864,-4.63457 0.61008,-0.01762 2.1984,4.50748 2.1984,4.50748"
                           style="fill:none;stroke:#ff7f0e;stroke-width:0.79701;stroke-linecap:butt;stroke-linejoin:miter;stroke-miterlimit:10;stroke-dasharray:none;stroke-opacity:1"
                           id="path496" /></g><g
                         id="g498"><path
                           d="m -101.5296,68.03166 c 0,0 1.58853,-7.3e-4 2.19888,-0.001 0.61034,-3e-4 1.58965,-8.5e-4 2.20006,-0.0012 0.6104,-3.5e-4 1.58919,-9.6e-4 2.19936,-0.0014 0.61018,-4.2e-4 1.58837,-0.0011 2.19839,-0.0016 0.61,-4.7e-4 1.58801,-0.0013 2.19815,-0.0018 0.61012,-5.2e-4 1.58896,-0.0015 2.19934,-0.0021 0.61037,-6.2e-4 1.58943,-0.0017 2.19983,-0.0024 0.61041,-7.2e-4 1.58939,-0.0019 2.19959,-0.0028 0.61021,-8.2e-4 1.58831,-0.0022 2.19839,-0.0032 0.61008,-9.5e-4 1.58859,-0.0026 2.19864,-0.0037 0.61003,-0.0011 1.5879,-0.003 2.19813,-0.0042 0.61025,-0.0012 1.58971,-0.0034 2.20008,-0.0048 0.61038,-0.0014 1.58882,-0.0039 2.19912,-0.0056 0.6103,-0.0016 1.58933,-0.0045 2.19959,-0.0064 0.61028,-0.0019 1.58878,-0.0052 2.19888,-0.0073 0.6101,-0.0022 1.58818,-0.006 2.19838,-0.0085 0.61022,-0.0025 1.58949,-0.0068 2.19959,-0.0097 0.6101,-0.0029 1.58746,-0.0078 2.19766,-0.01115 0.61021,-0.0033 1.58998,-0.009 2.20032,-0.01282 0.61035,-0.0038 1.58842,-0.01035 2.19864,-0.01473 0.61019,-0.0044 1.58911,-0.01188 2.19934,-0.01692 0.61024,-0.005 1.58917,-0.01366 2.19888,-0.01944 0.6097,-0.0058 1.58525,-0.01566 2.1955,-0.02231 0.61022,-0.0066 1.59201,-0.01797 2.20271,-0.0256 0.61072,-0.0076 1.5888,-0.02062 2.19888,-0.02933 0.61008,-0.0087 1.58811,-0.02362 2.19815,-0.0336 0.61003,-0.01 1.58846,-0.02704 2.19862,-0.03847 0.61019,-0.01142 1.5887,-0.03088 2.19912,-0.04393 0.6104,-0.01304 1.58993,-0.03523 2.20032,-0.05007 0.61036,-0.01484 1.58868,-0.0401 2.19885,-0.05697 0.61018,-0.01686 1.58874,-0.0455 2.19888,-0.06456 0.61013,-0.01905 1.58856,-0.05142 2.19863,-0.07289 0.61007,-0.02147 1.58828,-0.05781 2.19839,-0.08183 0.61009,-0.02402 1.58853,-0.06462 2.19887,-0.09132 0.61035,-0.02669 1.58966,-0.07169 2.20005,-0.10111 0.61042,-0.02942 1.58919,-0.07883 2.19938,-0.11091 0.61016,-0.03209 1.58838,-0.0858 2.19838,-0.12043 0.61001,-0.03463 1.58801,-0.0923 2.19815,-0.12924 0.61013,-0.03694 1.58897,-0.09811 2.19934,-0.13704 0.61038,-0.03894 1.58943,-0.10304 2.19984,-0.1436 0.6104,-0.04055 1.58937,-0.10696 2.19959,-0.1488 0.6102,-0.04185 1.58833,-0.11002 2.19839,-0.15285 0.61008,-0.04285 1.58858,-0.11232 2.19862,-0.15596 0.61005,-0.04364 1.58793,-0.11424 2.19817,-0.15863 0.61023,-0.04439 1.58968,-0.11613 2.20006,-0.16135 0.61037,-0.04522 1.58882,-0.11837 2.19911,-0.16466 0.61029,-0.04627 1.5893,-0.12129 2.19956,-0.16894 0.61027,-0.04764 1.58877,-0.12511 2.19888,-0.17451 0.61011,-0.04941 1.58818,-0.13004 2.19839,-0.18165 0.6102,-0.05158 1.58948,-0.13607 2.19959,-0.19029 0.61009,-0.05421 1.58746,-0.14328 2.19768,-0.2005 0.61019,-0.05722 1.58995,-0.15144 2.2003,-0.21201 0.61033,-0.06056 1.58842,-0.16041 2.19862,-0.22456 0.61022,-0.06414 1.58911,-0.16995 2.19936,-0.23787 0.61023,-0.0679 1.58915,-0.17987 2.19887,-0.25161 0.60971,-0.07175 1.58526,-0.18993 2.19549,-0.2656 0.61025,-0.07565 1.59201,-0.20013 2.20273,-0.27971 0.6107,-0.07959 1.58881,-0.21037 2.19887,-0.29393 0.61007,-0.08357 1.5881,-0.22075 2.19815,-0.30838 0.61004,-0.08761 1.58845,-0.23138 2.19864,-0.32319 0.61017,-0.0918 1.58868,-0.24237 2.19909,-0.33855 0.6104,-0.09616 1.58995,-0.25388 2.20032,-0.35465 0.61038,-0.10076 1.5887,-0.26602 2.19888,-0.3717 0.61017,-0.10568 1.58872,-0.27905 2.19886,-0.39005 0.61013,-0.111 1.58856,-0.29322 2.19864,-0.41007 0.61006,-0.11686 1.58828,-0.30884 2.19837,-0.43219 0.61011,-0.12336 1.58854,-0.3263 2.19889,-0.4569 0.61033,-0.1306 1.58966,-0.34578 2.20007,-0.48444 0.6104,-0.13865 1.58917,-0.36743 2.19934,-0.51498 0.61019,-0.14754 1.58838,-0.39126 2.1984,-0.54851 0.61,-0.15725 1.58801,-0.41716 2.19813,-0.58487 0.61014,-0.1677 1.58899,-0.44499 2.19937,-0.62385 0.61037,-0.17886 1.58942,-0.47464 2.19983,-0.66539 0.6104,-0.19075 1.58939,-0.50612 2.19959,-0.70949 0.61021,-0.20338 1.58832,-0.53953 2.19839,-0.7563 0.61006,-0.21677 1.58859,-0.57501 2.19863,-0.806 0.61004,-0.23097 1.5879,-0.61271 2.19815,-0.85881 0.61024,-0.24611 1.5897,-0.6528 2.20007,-0.91502 0.61038,-0.26224 1.58881,-0.69555 2.19911,-0.975 0.61029,-0.27943 1.58931,-0.74118 2.19959,-1.03908 0.61026,-0.29789 1.58877,-0.79023 2.19886,-1.10806 0.61011,-0.31782 1.58818,-0.84321 2.1984,-1.18269 0.61021,-0.33948 1.58949,-0.90091 2.19958,-1.26401 0.61011,-0.36311 1.58747,-0.96399 2.19768,-1.35298 0.61022,-0.38899 1.58997,-1.03323 2.2003,-1.45062 0.61036,-0.41739 1.58843,-1.10916 2.19864,-1.55768 0.6102,-0.44853 1.5891,-1.1924 2.19935,-1.67496 0.61024,-0.48256 1.58917,-1.28334 2.19886,-1.80304 0.60971,-0.51968 1.58527,-1.38246 2.19551,-1.94256 0.61023,-0.5601 1.59201,-1.4903 2.20272,-2.09429 0.61071,-0.60398 1.5888,-1.60733 2.19888,-2.25895 0.61006,-0.65161 1.5881,-1.73426 2.19813,-2.43747 0.61005,-0.7032 1.58846,-1.87174 2.19864,-2.63083 0.61019,-0.7591 1.5887,-2.02062 2.1991,-2.84023 0.61041,-0.81959 1.58995,-2.18177 2.20032,-3.06691 0.61038,-0.88512 1.5887,-2.35634 2.19888,-3.31241 0.61018,-0.95608 1.58873,-2.54545 2.19885,-3.57841 0.61014,-1.03296 1.58856,-2.75032 2.19864,-3.86647 0.61008,-1.11615 2.1984,-4.17795 2.1984,-4.17795"
                           style="fill:none;stroke:#2ca02c;stroke-width:0.79701;stroke-linecap:butt;stroke-linejoin:miter;stroke-miterlimit:10;stroke-dasharray:none;stroke-opacity:1"
                           id="path500" /></g><g
                         id="g502"><path
                           d="m -101.5296,68.03261 c 0,0 1.58853,-6.4e-4 2.19888,-9e-4 0.61034,-2.6e-4 1.58965,-7.3e-4 2.20006,-0.001 0.6104,-3.1e-4 1.58919,-8.4e-4 2.19936,-0.0012 0.61018,-3.5e-4 1.58837,-9.8e-4 2.19839,-0.0014 0.61,-3.9e-4 1.58801,-0.0011 2.19815,-0.0016 0.61012,-4.6e-4 1.58896,-0.0013 2.19934,-0.0018 0.61037,-5.2e-4 1.58943,-0.0015 2.19983,-0.0021 0.61041,-6.1e-4 1.58939,-0.0017 2.19959,-0.0024 0.61021,-7e-4 1.58831,-0.0019 2.19839,-0.0028 0.61008,-8.2e-4 1.58859,-0.0022 2.19864,-0.0032 0.61003,-9.5e-4 1.5879,-0.0025 2.19813,-0.0036 0.61025,-0.0011 1.58971,-0.0029 2.20008,-0.0042 0.61038,-0.0013 1.58882,-0.0034 2.19912,-0.0048 0.6103,-0.0014 1.58933,-0.0039 2.19959,-0.0055 0.61028,-0.0016 1.58878,-0.0045 2.19888,-0.0063 0.6101,-0.0019 1.58818,-0.0051 2.19838,-0.0073 0.61022,-0.0022 1.58949,-0.0059 2.19959,-0.0084 0.6101,-0.0025 1.58746,-0.0068 2.19766,-0.0096 0.61021,-0.0029 1.58998,-0.0078 2.20032,-0.01109 0.61035,-0.0033 1.58842,-0.0089 2.19864,-0.01272 0.61019,-0.0038 1.58911,-0.01027 2.19934,-0.01462 0.61024,-0.0044 1.58917,-0.01181 2.19888,-0.01678 0.6097,-0.005 1.58525,-0.01354 2.1955,-0.01928 0.61022,-0.0057 1.59201,-0.01553 2.20271,-0.02209 0.61072,-0.0066 1.5888,-0.01779 2.19888,-0.02532 0.61008,-0.0075 1.58811,-0.02036 2.19815,-0.02899 0.61003,-0.0086 1.58846,-0.0233 2.19862,-0.03314 0.61019,-0.0098 1.5887,-0.02659 2.19912,-0.03781 0.6104,-0.01123 1.58993,-0.0303 2.20032,-0.04306 0.61036,-0.01276 1.58868,-0.03444 2.19885,-0.04889 0.61018,-0.01443 1.58874,-0.03897 2.19888,-0.05527 0.61013,-0.01629 1.58856,-0.04394 2.19863,-0.06221 0.61007,-0.01828 1.58828,-0.04922 2.19839,-0.06958 0.61009,-0.02035 1.58853,-0.05475 2.19887,-0.07722 0.61035,-0.02249 1.58966,-0.06033 2.20005,-0.08492 0.61042,-0.02458 1.58919,-0.06576 2.19938,-0.09231 0.61016,-0.02654 1.58838,-0.07079 2.19838,-0.09906 0.61001,-0.02826 1.58801,-0.07508 2.19815,-0.10471 0.61013,-0.02963 1.58897,-0.07837 2.19934,-0.1089 0.61038,-0.03055 1.58943,-0.08037 2.19984,-0.11131 0.6104,-0.03095 1.58937,-0.081 2.19959,-0.11185 0.6102,-0.03084 1.58833,-0.08026 2.19839,-0.11052 0.61008,-0.03024 1.58858,-0.07829 2.19862,-0.10757 0.61005,-0.02928 1.58793,-0.07544 2.19817,-0.10346 0.61023,-0.02802 1.58968,-0.07193 2.20006,-0.09855 0.61037,-0.02662 1.58882,-0.06818 2.19911,-0.0934 0.61029,-0.02523 1.5893,-0.0645 2.19956,-0.08841 0.61027,-0.02391 1.58877,-0.06116 2.19888,-0.08397 0.61011,-0.0228 1.58818,-0.05843 2.19839,-0.0804 0.6102,-0.02197 1.58948,-0.0565 2.19959,-0.07799 0.61009,-0.02148 1.58746,-0.05551 2.19768,-0.0769 0.61019,-0.0214 1.58995,-0.05558 2.2003,-0.0773 0.61033,-0.02173 1.58842,-0.0568 2.19862,-0.07929 0.61022,-0.02247 1.58911,-0.05914 2.19936,-0.08281 0.61023,-0.02368 1.58915,-0.06257 2.19887,-0.08781 0.60971,-0.02524 1.58526,-0.06697 2.19549,-0.0941 0.61025,-0.02712 1.59201,-0.07219 2.20273,-0.10147 0.6107,-0.02929 1.58881,-0.07801 2.19887,-0.10962 0.61007,-0.03162 1.5881,-0.08425 2.19815,-0.11835 0.61004,-0.0341 1.58845,-0.09079 2.19864,-0.12743 0.61017,-0.03663 1.58868,-0.09747 2.19909,-0.13668 0.6104,-0.03924 1.58995,-0.10425 2.20032,-0.14611 0.61038,-0.04183 1.5887,-0.11103 2.19888,-0.15556 0.61017,-0.04451 1.58872,-0.11803 2.19886,-0.16527 0.61013,-0.04726 1.58856,-0.1252 2.19864,-0.17529 0.61006,-0.0501 1.58828,-0.13274 2.19837,-0.18584 0.61011,-0.0531 1.58854,-0.14065 2.19889,-0.19694 0.61033,-0.05631 1.58966,-0.14914 2.20007,-0.20883 0.6104,-0.05971 1.58917,-0.15818 2.19934,-0.22149 0.61019,-0.06332 1.58838,-0.16777 2.1984,-0.23494 0.61,-0.06718 1.58801,-0.17801 2.19813,-0.24929 0.61014,-0.07131 1.58899,-0.18895 2.19937,-0.26465 0.61037,-0.07569 1.58942,-0.20058 2.19983,-0.28098 0.6104,-0.08038 1.58939,-0.21305 2.19959,-0.29845 0.61021,-0.08538 1.58832,-0.22631 2.19839,-0.31706 0.61006,-0.09074 1.58859,-0.24052 2.19863,-0.33696 0.61004,-0.09642 1.5879,-0.25561 2.19815,-0.35812 0.61024,-0.10251 1.5897,-0.27173 2.20007,-0.38072 0.61038,-0.10898 1.58881,-0.2889 2.19911,-0.40477 0.61029,-0.11589 1.58931,-0.30722 2.19959,-0.43047 0.61026,-0.12324 1.58877,-0.32674 2.19886,-0.45782 0.61011,-0.13109 1.58818,-0.34757 2.1984,-0.48706 0.61021,-0.13948 1.58949,-0.36986 2.19958,-0.51836 0.61011,-0.14848 1.58747,-0.39376 2.19768,-0.55188 0.61022,-0.15814 1.58997,-0.41939 2.2003,-0.58789 0.61036,-0.16852 1.58843,-0.44698 2.19864,-0.62669 0.6102,-0.17972 1.5891,-0.4768 2.19935,-0.66866 0.61024,-0.19186 1.58917,-0.50917 2.19886,-0.71425 0.60971,-0.20509 1.58527,-0.54443 2.19551,-0.76399 0.61023,-0.21956 1.59201,-0.58309 2.20272,-0.81856 0.61071,-0.23546 1.5888,-0.62561 2.19888,-0.87858 0.61006,-0.25298 1.5881,-0.67246 2.19813,-0.94471 0.61005,-0.27226 1.58846,-0.72409 2.19864,-1.01759 0.61019,-0.2935 1.5887,-0.78098 2.1991,-1.09779 0.61041,-0.31684 1.58995,-0.84337 2.20032,-1.18573 0.61038,-0.34237 1.5887,-0.91162 2.19888,-1.28186 0.61018,-0.37023 1.58873,-0.98603 2.19885,-1.38652 0.61014,-0.4005 1.58856,-1.06681 2.19864,-1.50008 0.61008,-0.43328 2.1984,-1.62267 2.1984,-1.62267"
                           style="fill:none;stroke:#d62728;stroke-width:0.79701;stroke-linecap:butt;stroke-linejoin:miter;stroke-miterlimit:10;stroke-dasharray:none;stroke-opacity:1"
                           id="path504" /></g></g></g><g
                     id="g506"><g
                       id="g508"
                       transform="translate(-24.963,-32.745)"><g
                         id="g510"><g
                           id="g512"
                           transform="translate(-149.482,-5.811)"><text
                             transform="matrix(1,0,0,-1,149.482,5.811)"
                             style="font-variant:normal;font-weight:normal;font-size:9.96264px;font-family:LMSans10;-inkscape-font-specification:LMSans10-Regular;writing-mode:lr-tb;fill:#46413c;fill-opacity:1;fill-rule:nonzero;stroke:none"
                             id="text516"><tspan
                               x="0 5.3897882 8.7970114 13.220424 18.371109 23.521793 27.945206 33.09589 37.519302 45.429638 49.305107 56.358654 60.692402"
                               y="0"
                               sodipodi:role="line"
                               id="tspan514">Frequency(Hz)</tspan></text><g
                             id="g518"
                             transform="translate(149.482,5.811)" /></g></g><g
                         id="g520"
                         transform="translate(24.963,32.745)" /></g></g><g
                     id="g522"><g
                       id="g524"
                       transform="rotate(90,-92.976,-71.234)"><g
                         id="g526"><g
                           id="g528"
                           transform="translate(-10.235,-60.298)"><text
                             transform="matrix(1,0,0,-1,10.235,60.298)"
                             style="font-variant:normal;font-weight:normal;font-size:9.96264px;font-family:LMSans10;-inkscape-font-specification:LMSans10-Regular;writing-mode:lr-tb;fill:#46413c;fill-opacity:1;fill-rule:nonzero;stroke:none"
                             id="text532"><tspan
                               x="0 6.366127 11.516811 16.308842 20.124533"
                               y="0"
                               sodipodi:role="line"
                               id="tspan530">Phase</tspan></text><g
                             id="g534"
                             transform="translate(10.235,60.298)" /></g></g><g
                         id="g536"
                         transform="translate(164.21,-21.742)" /></g></g></g></g><g
                 id="g538"
                 transform="translate(-174.445,-38.556)" /></g><g
               id="g540"
               transform="translate(51.146,113.392)" /></g><g
             id="g542" /><g
             id="g544" /></g></g></g></g></svg>
